<mxfile host="Electron" modified="2023-12-19T07:44:23.073Z" agent="Mozilla/5.0 (Windows NT 10.0; Win64; x64) AppleWebKit/537.36 (KHTML, like Gecko) draw.io/22.0.2 Chrome/114.0.5735.289 Electron/25.8.4 Safari/537.36" etag="_pCmEIzvmd2nuhu3pM0U" version="22.0.2" type="device">
  <diagram name="Page-1" id="Z-wb2gNtwLOhCS0-J-pc">
    <mxGraphModel dx="1971" dy="985" grid="1" gridSize="10" guides="1" tooltips="1" connect="1" arrows="1" fold="1" page="0" pageScale="1" pageWidth="850" pageHeight="1100" math="0" shadow="0">
      <root>
        <mxCell id="0" />
        <mxCell id="1" parent="0" />
        <mxCell id="M_ZJVy5GG4jqJxde9E4l-4" style="edgeStyle=orthogonalEdgeStyle;rounded=1;orthogonalLoop=1;jettySize=auto;html=1;exitX=0.75;exitY=1;exitDx=0;exitDy=0;entryX=0;entryY=0.5;entryDx=0;entryDy=0;" parent="1" source="Jwdn6dMMMGBfEsykWMbw-12" target="-IJpLmdYqkzlUvNU0imr-54" edge="1">
          <mxGeometry relative="1" as="geometry" />
        </mxCell>
        <mxCell id="Jwdn6dMMMGBfEsykWMbw-12" value="&lt;font style=&quot;font-size: 15px;&quot;&gt;Student&lt;/font&gt;" style="rounded=0;whiteSpace=wrap;html=1;" parent="1" vertex="1">
          <mxGeometry x="-40" y="175" width="200" height="100" as="geometry" />
        </mxCell>
        <mxCell id="Jwdn6dMMMGBfEsykWMbw-13" value="" style="endArrow=classic;html=1;rounded=0;exitX=1;exitY=0.25;exitDx=0;exitDy=0;entryX=0.001;entryY=0.35;entryDx=0;entryDy=0;entryPerimeter=0;" parent="1" source="Jwdn6dMMMGBfEsykWMbw-12" target="-IJpLmdYqkzlUvNU0imr-1" edge="1">
          <mxGeometry width="50" height="50" relative="1" as="geometry">
            <mxPoint x="280" y="350" as="sourcePoint" />
            <mxPoint x="410.82000000000016" y="230.57000000000016" as="targetPoint" />
          </mxGeometry>
        </mxCell>
        <mxCell id="Jwdn6dMMMGBfEsykWMbw-14" value="" style="endArrow=classic;html=1;rounded=0;exitX=-0.002;exitY=0.684;exitDx=0;exitDy=0;entryX=1.001;entryY=0.819;entryDx=0;entryDy=0;exitPerimeter=0;entryPerimeter=0;" parent="1" source="-IJpLmdYqkzlUvNU0imr-1" target="Jwdn6dMMMGBfEsykWMbw-12" edge="1">
          <mxGeometry width="50" height="50" relative="1" as="geometry">
            <mxPoint x="410.69000000000005" y="260.5999999999999" as="sourcePoint" />
            <mxPoint x="130" y="270" as="targetPoint" />
          </mxGeometry>
        </mxCell>
        <mxCell id="Jwdn6dMMMGBfEsykWMbw-16" value="&lt;font style=&quot;font-size: 15px;&quot;&gt;Registers&lt;/font&gt;" style="text;html=1;strokeColor=none;fillColor=none;align=center;verticalAlign=middle;whiteSpace=wrap;rounded=0;" parent="1" vertex="1">
          <mxGeometry x="230" y="170" width="60" height="30" as="geometry" />
        </mxCell>
        <mxCell id="Jwdn6dMMMGBfEsykWMbw-20" value="&lt;font style=&quot;font-size: 15px;&quot;&gt;Gets UserID, Password&lt;/font&gt;" style="text;html=1;strokeColor=none;fillColor=none;align=center;verticalAlign=middle;whiteSpace=wrap;rounded=0;" parent="1" vertex="1">
          <mxGeometry x="165" y="260" width="190" height="30" as="geometry" />
        </mxCell>
        <mxCell id="Jwdn6dMMMGBfEsykWMbw-31" value="&lt;font style=&quot;font-size: 15px;&quot;&gt;Enters UserID, Password&lt;/font&gt;" style="text;html=1;strokeColor=none;fillColor=none;align=center;verticalAlign=middle;whiteSpace=wrap;rounded=0;rotation=0;" parent="1" vertex="1">
          <mxGeometry x="145" y="450" width="180" height="30" as="geometry" />
        </mxCell>
        <mxCell id="Jwdn6dMMMGBfEsykWMbw-41" value="" style="endArrow=classic;html=1;rounded=1;exitX=0.5;exitY=1;exitDx=0;exitDy=0;entryX=-0.003;entryY=0.395;entryDx=0;entryDy=0;entryPerimeter=0;" parent="1" source="Jwdn6dMMMGBfEsykWMbw-12" target="-IJpLmdYqkzlUvNU0imr-59" edge="1">
          <mxGeometry width="50" height="50" relative="1" as="geometry">
            <mxPoint x="530" y="640" as="sourcePoint" />
            <mxPoint x="428.0380592228764" y="699.0380592228762" as="targetPoint" />
            <Array as="points">
              <mxPoint x="60" y="732" />
            </Array>
          </mxGeometry>
        </mxCell>
        <mxCell id="Jwdn6dMMMGBfEsykWMbw-42" value="&lt;font style=&quot;font-size: 15px;&quot;&gt;Display Model Test&lt;/font&gt;" style="text;html=1;strokeColor=none;fillColor=none;align=center;verticalAlign=middle;whiteSpace=wrap;rounded=0;rotation=0;" parent="1" vertex="1">
          <mxGeometry x="122.5" y="800" width="180" height="30" as="geometry" />
        </mxCell>
        <mxCell id="Jwdn6dMMMGBfEsykWMbw-43" value="" style="endArrow=classic;html=1;rounded=1;exitX=0;exitY=0.75;exitDx=0;exitDy=0;entryX=0.099;entryY=1;entryDx=0;entryDy=0;entryPerimeter=0;" parent="1" source="-IJpLmdYqkzlUvNU0imr-59" target="Jwdn6dMMMGBfEsykWMbw-12" edge="1">
          <mxGeometry width="50" height="50" relative="1" as="geometry">
            <mxPoint x="409.0000000000002" y="745" as="sourcePoint" />
            <mxPoint x="60" y="280" as="targetPoint" />
            <Array as="points">
              <mxPoint x="-20" y="793" />
            </Array>
          </mxGeometry>
        </mxCell>
        <mxCell id="Jwdn6dMMMGBfEsykWMbw-44" value="&lt;font style=&quot;font-size: 15px;&quot;&gt;Clicks at Take a Test Button&lt;/font&gt;" style="text;html=1;strokeColor=none;fillColor=none;align=center;verticalAlign=middle;whiteSpace=wrap;rounded=0;rotation=0;" parent="1" vertex="1">
          <mxGeometry x="122.5" y="700" width="195" height="30" as="geometry" />
        </mxCell>
        <mxCell id="Jwdn6dMMMGBfEsykWMbw-60" value="&lt;font style=&quot;font-size: 15px;&quot;&gt;Displays ID&lt;/font&gt;" style="text;html=1;strokeColor=none;fillColor=none;align=center;verticalAlign=middle;whiteSpace=wrap;rounded=0;" parent="1" vertex="1">
          <mxGeometry x="576.75" y="260" width="90" height="30" as="geometry" />
        </mxCell>
        <mxCell id="Jwdn6dMMMGBfEsykWMbw-62" value="" style="endArrow=classic;html=1;rounded=0;exitX=1;exitY=0.355;exitDx=0;exitDy=0;entryX=0;entryY=0.25;entryDx=0;entryDy=0;exitPerimeter=0;" parent="1" source="-IJpLmdYqkzlUvNU0imr-54" target="aYnrMROXT0XuU4JTBHdX-2" edge="1">
          <mxGeometry width="50" height="50" relative="1" as="geometry">
            <mxPoint x="538.5699999999999" y="470.04999999999995" as="sourcePoint" />
            <mxPoint x="791.8499999999999" y="470.92999999999984" as="targetPoint" />
          </mxGeometry>
        </mxCell>
        <mxCell id="Jwdn6dMMMGBfEsykWMbw-63" value="" style="endArrow=classic;html=1;rounded=0;exitX=-0.001;exitY=0.852;exitDx=0;exitDy=0;entryX=1;entryY=0.711;entryDx=0;entryDy=0;entryPerimeter=0;exitPerimeter=0;" parent="1" source="aYnrMROXT0XuU4JTBHdX-2" target="-IJpLmdYqkzlUvNU0imr-54" edge="1">
          <mxGeometry width="50" height="50" relative="1" as="geometry">
            <mxPoint x="792.1499999999999" y="500.04999999999995" as="sourcePoint" />
            <mxPoint x="538.8299999999999" y="498.90999999999985" as="targetPoint" />
          </mxGeometry>
        </mxCell>
        <mxCell id="Jwdn6dMMMGBfEsykWMbw-65" value="&lt;font style=&quot;font-size: 15px;&quot;&gt;Check ID, Password&lt;/font&gt;" style="text;html=1;strokeColor=none;fillColor=none;align=center;verticalAlign=middle;whiteSpace=wrap;rounded=0;" parent="1" vertex="1">
          <mxGeometry x="551.75" y="520" width="140" height="30" as="geometry" />
        </mxCell>
        <mxCell id="Jwdn6dMMMGBfEsykWMbw-67" value="&lt;font style=&quot;font-size: 15px;&quot;&gt;Confirms Login&lt;/font&gt;" style="text;html=1;strokeColor=none;fillColor=none;align=center;verticalAlign=middle;whiteSpace=wrap;rounded=0;" parent="1" vertex="1">
          <mxGeometry x="566.75" y="428" width="110" height="30" as="geometry" />
        </mxCell>
        <mxCell id="Jwdn6dMMMGBfEsykWMbw-73" value="" style="endArrow=classic;html=1;rounded=0;exitX=1.006;exitY=0.4;exitDx=0;exitDy=0;entryX=0.003;entryY=0.331;entryDx=0;entryDy=0;entryPerimeter=0;exitPerimeter=0;" parent="1" source="-IJpLmdYqkzlUvNU0imr-59" target="Jwdn6dMMMGBfEsykWMbw-75" edge="1">
          <mxGeometry width="50" height="50" relative="1" as="geometry">
            <mxPoint x="554.997" y="700.0000000000001" as="sourcePoint" />
            <mxPoint x="792.0000000000001" y="701.0000000000001" as="targetPoint" />
          </mxGeometry>
        </mxCell>
        <mxCell id="Jwdn6dMMMGBfEsykWMbw-75" value="&lt;font style=&quot;font-size: 15px;&quot;&gt;Questions&lt;/font&gt;" style="html=1;dashed=0;whiteSpace=wrap;shape=partialRectangle;right=0;" parent="1" vertex="1">
          <mxGeometry x="730" y="700" width="214.29" height="100" as="geometry" />
        </mxCell>
        <mxCell id="Jwdn6dMMMGBfEsykWMbw-76" value="&lt;font style=&quot;font-size: 15px;&quot;&gt;Retrieve model questions&lt;/font&gt;" style="text;html=1;strokeColor=none;fillColor=none;align=center;verticalAlign=middle;whiteSpace=wrap;rounded=0;" parent="1" vertex="1">
          <mxGeometry x="528.5" y="800" width="186.5" height="30" as="geometry" />
        </mxCell>
        <mxCell id="Jwdn6dMMMGBfEsykWMbw-77" value="&lt;font style=&quot;font-size: 15px;&quot;&gt;Posts Query&lt;/font&gt;" style="text;html=1;strokeColor=none;fillColor=none;align=center;verticalAlign=middle;whiteSpace=wrap;rounded=0;" parent="1" vertex="1">
          <mxGeometry x="566.75" y="700" width="110" height="30" as="geometry" />
        </mxCell>
        <mxCell id="-IJpLmdYqkzlUvNU0imr-5" value="" style="group" parent="1" vertex="1" connectable="0">
          <mxGeometry x="360" y="140" width="153" height="170" as="geometry" />
        </mxCell>
        <mxCell id="-IJpLmdYqkzlUvNU0imr-1" value="" style="rounded=1;whiteSpace=wrap;html=1;" parent="-IJpLmdYqkzlUvNU0imr-5" vertex="1">
          <mxGeometry width="153" height="170" as="geometry" />
        </mxCell>
        <mxCell id="-IJpLmdYqkzlUvNU0imr-4" value="" style="endArrow=none;html=1;exitX=0;exitY=0.25;exitDx=0;exitDy=0;entryX=1;entryY=0.25;entryDx=0;entryDy=0;curved=1;" parent="-IJpLmdYqkzlUvNU0imr-5" source="-IJpLmdYqkzlUvNU0imr-1" target="-IJpLmdYqkzlUvNU0imr-1" edge="1">
          <mxGeometry width="50" height="50" relative="1" as="geometry">
            <mxPoint x="85" y="127.5" as="sourcePoint" />
            <mxPoint x="127.5" y="85" as="targetPoint" />
            <Array as="points">
              <mxPoint x="76.5" y="68" />
            </Array>
          </mxGeometry>
        </mxCell>
        <mxCell id="-IJpLmdYqkzlUvNU0imr-6" value="&lt;font style=&quot;font-size: 17px;&quot;&gt;1.0&lt;/font&gt;" style="text;html=1;strokeColor=none;fillColor=none;align=center;verticalAlign=middle;whiteSpace=wrap;rounded=0;" parent="-IJpLmdYqkzlUvNU0imr-5" vertex="1">
          <mxGeometry x="52.214285714285715" y="16.19047619047619" width="48.57142857142857" height="24.285714285714285" as="geometry" />
        </mxCell>
        <mxCell id="-IJpLmdYqkzlUvNU0imr-7" value="&lt;font style=&quot;font-size: 17px;&quot;&gt;Registartion Process&lt;/font&gt;" style="text;html=1;strokeColor=none;fillColor=none;align=center;verticalAlign=middle;whiteSpace=wrap;rounded=0;" parent="-IJpLmdYqkzlUvNU0imr-5" vertex="1">
          <mxGeometry x="15.785714285714286" y="89.04761904761905" width="121.42857142857143" height="24.285714285714285" as="geometry" />
        </mxCell>
        <mxCell id="-IJpLmdYqkzlUvNU0imr-46" value="" style="endArrow=classic;html=1;rounded=0;entryX=0;entryY=0.25;entryDx=0;entryDy=0;exitX=0.998;exitY=0.345;exitDx=0;exitDy=0;exitPerimeter=0;" parent="1" source="-IJpLmdYqkzlUvNU0imr-1" target="aYnrMROXT0XuU4JTBHdX-3" edge="1">
          <mxGeometry width="50" height="50" relative="1" as="geometry">
            <mxPoint x="560" y="220" as="sourcePoint" />
            <mxPoint x="792.8500000000004" y="231.62999999999988" as="targetPoint" />
          </mxGeometry>
        </mxCell>
        <mxCell id="-IJpLmdYqkzlUvNU0imr-52" value="" style="endArrow=classic;html=1;rounded=0;exitX=-0.003;exitY=0.853;exitDx=0;exitDy=0;entryX=1.003;entryY=0.708;entryDx=0;entryDy=0;exitPerimeter=0;entryPerimeter=0;" parent="1" source="aYnrMROXT0XuU4JTBHdX-3" target="-IJpLmdYqkzlUvNU0imr-1" edge="1">
          <mxGeometry width="50" height="50" relative="1" as="geometry">
            <mxPoint x="793" y="261.69" as="sourcePoint" />
            <mxPoint x="553" y="260.69" as="targetPoint" />
          </mxGeometry>
        </mxCell>
        <mxCell id="-IJpLmdYqkzlUvNU0imr-53" value="" style="group" parent="1" vertex="1" connectable="0">
          <mxGeometry x="360" y="400" width="153" height="170" as="geometry" />
        </mxCell>
        <mxCell id="-IJpLmdYqkzlUvNU0imr-54" value="" style="rounded=1;whiteSpace=wrap;html=1;" parent="-IJpLmdYqkzlUvNU0imr-53" vertex="1">
          <mxGeometry width="153" height="170" as="geometry" />
        </mxCell>
        <mxCell id="-IJpLmdYqkzlUvNU0imr-55" value="" style="endArrow=none;html=1;exitX=0;exitY=0.25;exitDx=0;exitDy=0;entryX=1;entryY=0.25;entryDx=0;entryDy=0;curved=1;" parent="-IJpLmdYqkzlUvNU0imr-53" source="-IJpLmdYqkzlUvNU0imr-54" target="-IJpLmdYqkzlUvNU0imr-54" edge="1">
          <mxGeometry width="50" height="50" relative="1" as="geometry">
            <mxPoint x="85" y="127.5" as="sourcePoint" />
            <mxPoint x="127.5" y="85" as="targetPoint" />
            <Array as="points">
              <mxPoint x="76.5" y="68" />
            </Array>
          </mxGeometry>
        </mxCell>
        <mxCell id="-IJpLmdYqkzlUvNU0imr-56" value="&lt;font style=&quot;font-size: 17px;&quot;&gt;2.0&lt;/font&gt;" style="text;html=1;strokeColor=none;fillColor=none;align=center;verticalAlign=middle;whiteSpace=wrap;rounded=0;" parent="-IJpLmdYqkzlUvNU0imr-53" vertex="1">
          <mxGeometry x="52.214285714285715" y="16.19047619047619" width="48.57142857142857" height="24.285714285714285" as="geometry" />
        </mxCell>
        <mxCell id="-IJpLmdYqkzlUvNU0imr-57" value="&lt;font style=&quot;font-size: 17px;&quot;&gt;Login&lt;br&gt;Process&lt;/font&gt;" style="text;html=1;strokeColor=none;fillColor=none;align=center;verticalAlign=middle;whiteSpace=wrap;rounded=0;" parent="-IJpLmdYqkzlUvNU0imr-53" vertex="1">
          <mxGeometry x="15.785714285714286" y="89.04761904761905" width="121.42857142857143" height="24.285714285714285" as="geometry" />
        </mxCell>
        <mxCell id="-IJpLmdYqkzlUvNU0imr-58" value="" style="group" parent="1" vertex="1" connectable="0">
          <mxGeometry x="360" y="665" width="153" height="170" as="geometry" />
        </mxCell>
        <mxCell id="-IJpLmdYqkzlUvNU0imr-59" value="" style="rounded=1;whiteSpace=wrap;html=1;" parent="-IJpLmdYqkzlUvNU0imr-58" vertex="1">
          <mxGeometry width="153" height="170" as="geometry" />
        </mxCell>
        <mxCell id="-IJpLmdYqkzlUvNU0imr-60" value="" style="endArrow=none;html=1;exitX=0;exitY=0.25;exitDx=0;exitDy=0;entryX=1;entryY=0.25;entryDx=0;entryDy=0;curved=1;" parent="-IJpLmdYqkzlUvNU0imr-58" source="-IJpLmdYqkzlUvNU0imr-59" target="-IJpLmdYqkzlUvNU0imr-59" edge="1">
          <mxGeometry width="50" height="50" relative="1" as="geometry">
            <mxPoint x="85" y="127.5" as="sourcePoint" />
            <mxPoint x="127.5" y="85" as="targetPoint" />
            <Array as="points">
              <mxPoint x="76.5" y="68" />
            </Array>
          </mxGeometry>
        </mxCell>
        <mxCell id="-IJpLmdYqkzlUvNU0imr-61" value="&lt;font style=&quot;font-size: 17px;&quot;&gt;3.0&lt;/font&gt;" style="text;html=1;strokeColor=none;fillColor=none;align=center;verticalAlign=middle;whiteSpace=wrap;rounded=0;" parent="-IJpLmdYqkzlUvNU0imr-58" vertex="1">
          <mxGeometry x="52.214285714285715" y="16.19047619047619" width="48.57142857142857" height="24.285714285714285" as="geometry" />
        </mxCell>
        <mxCell id="-IJpLmdYqkzlUvNU0imr-62" value="&lt;font style=&quot;font-size: 17px;&quot;&gt;Model Test&lt;br&gt;Process&lt;/font&gt;" style="text;html=1;strokeColor=none;fillColor=none;align=center;verticalAlign=middle;whiteSpace=wrap;rounded=0;" parent="-IJpLmdYqkzlUvNU0imr-58" vertex="1">
          <mxGeometry x="15.79" y="89.05" width="134.21" height="24.29" as="geometry" />
        </mxCell>
        <mxCell id="Jwdn6dMMMGBfEsykWMbw-74" value="" style="endArrow=classic;html=1;rounded=0;entryX=1;entryY=0.75;entryDx=0;entryDy=0;exitX=-0.002;exitY=0.919;exitDx=0;exitDy=0;exitPerimeter=0;" parent="1" source="Jwdn6dMMMGBfEsykWMbw-75" target="-IJpLmdYqkzlUvNU0imr-59" edge="1">
          <mxGeometry width="50" height="50" relative="1" as="geometry">
            <mxPoint x="790" y="768" as="sourcePoint" />
            <mxPoint x="553" y="744.66" as="targetPoint" />
          </mxGeometry>
        </mxCell>
        <mxCell id="aYnrMROXT0XuU4JTBHdX-2" value="&lt;font style=&quot;font-size: 15px;&quot;&gt;Registration&lt;/font&gt;" style="html=1;dashed=0;whiteSpace=wrap;shape=partialRectangle;right=0;" parent="1" vertex="1">
          <mxGeometry x="730" y="435" width="214.29" height="100" as="geometry" />
        </mxCell>
        <mxCell id="aYnrMROXT0XuU4JTBHdX-3" value="Registration" style="html=1;dashed=0;whiteSpace=wrap;shape=partialRectangle;right=0;" parent="1" vertex="1">
          <mxGeometry x="725" y="175" width="214.29" height="100" as="geometry" />
        </mxCell>
        <mxCell id="aYnrMROXT0XuU4JTBHdX-5" value="&lt;font style=&quot;font-size: 15px;&quot;&gt;Posts Query&lt;/font&gt;" style="text;html=1;strokeColor=none;fillColor=none;align=center;verticalAlign=middle;whiteSpace=wrap;rounded=0;" parent="1" vertex="1">
          <mxGeometry x="560" y="170" width="110" height="30" as="geometry" />
        </mxCell>
        <mxCell id="M_ZJVy5GG4jqJxde9E4l-1" style="edgeStyle=orthogonalEdgeStyle;rounded=1;orthogonalLoop=1;jettySize=auto;html=1;exitX=0.5;exitY=1;exitDx=0;exitDy=0;entryX=0.5;entryY=1;entryDx=0;entryDy=0;" parent="1" source="aYnrMROXT0XuU4JTBHdX-7" target="-IJpLmdYqkzlUvNU0imr-59" edge="1">
          <mxGeometry relative="1" as="geometry">
            <Array as="points">
              <mxPoint x="1040" y="375" />
              <mxPoint x="1040" y="880" />
              <mxPoint x="476" y="880" />
            </Array>
          </mxGeometry>
        </mxCell>
        <mxCell id="M_ZJVy5GG4jqJxde9E4l-2" style="edgeStyle=orthogonalEdgeStyle;rounded=1;orthogonalLoop=1;jettySize=auto;html=1;exitX=0;exitY=0.5;exitDx=0;exitDy=0;entryX=0.5;entryY=0;entryDx=0;entryDy=0;" parent="1" source="aYnrMROXT0XuU4JTBHdX-7" target="-IJpLmdYqkzlUvNU0imr-54" edge="1">
          <mxGeometry relative="1" as="geometry" />
        </mxCell>
        <mxCell id="aYnrMROXT0XuU4JTBHdX-7" value="&lt;font style=&quot;font-size: 15px;&quot;&gt;Admin&lt;/font&gt;" style="rounded=0;whiteSpace=wrap;html=1;" parent="1" vertex="1">
          <mxGeometry x="939.29" y="300" width="200" height="100" as="geometry" />
        </mxCell>
        <mxCell id="aYnrMROXT0XuU4JTBHdX-11" value="&lt;font style=&quot;font-size: 15px;&quot;&gt;Enters Email, Password&lt;/font&gt;" style="text;html=1;strokeColor=none;fillColor=none;align=center;verticalAlign=middle;whiteSpace=wrap;rounded=0;rotation=0;" parent="1" vertex="1">
          <mxGeometry x="620" y="320" width="196.75" height="30" as="geometry" />
        </mxCell>
        <mxCell id="aYnrMROXT0XuU4JTBHdX-21" value="&lt;font style=&quot;font-size: 15px;&quot;&gt;Enter Questions&lt;/font&gt;" style="text;html=1;strokeColor=none;fillColor=none;align=center;verticalAlign=middle;whiteSpace=wrap;rounded=0;" parent="1" vertex="1">
          <mxGeometry x="676.75" y="880" width="140" height="30" as="geometry" />
        </mxCell>
      </root>
    </mxGraphModel>
  </diagram>
</mxfile>
